<?xml version="1.0" encoding="UTF-8" standalone="no"?>
<!-- Created with Inkscape (http://www.inkscape.org/) -->

<svg
   xmlns:dc="http://purl.org/dc/elements/1.1/"
   xmlns:cc="http://creativecommons.org/ns#"
   xmlns:rdf="http://www.w3.org/1999/02/22-rdf-syntax-ns#"
   xmlns:svg="http://www.w3.org/2000/svg"
   xmlns="http://www.w3.org/2000/svg"
   xmlns:sodipodi="http://sodipodi.sourceforge.net/DTD/sodipodi-0.dtd"
   xmlns:inkscape="http://www.inkscape.org/namespaces/inkscape"
   width="256px"
   height="256px"
   viewBox="0 0 256 256"
   version="1.1"
   id="SVGRoot"
   sodipodi:docname="Logo-Light.svg"
   inkscape:version="0.92.5 (2060ec1f9f, 2020-04-08)">
  <defs
     id="defs3725" />
  <sodipodi:namedview
     id="base"
     pagecolor="#ffffff"
     bordercolor="#666666"
     borderopacity="1.0"
     inkscape:pageopacity="0.0"
     inkscape:pageshadow="2"
     inkscape:zoom="2.8284271"
     inkscape:cx="27.570121"
     inkscape:cy="121.22"
     inkscape:document-units="px"
     inkscape:current-layer="layer2"
     showgrid="false"
     inkscape:window-width="1908"
     inkscape:window-height="987"
     inkscape:window-x="0"
     inkscape:window-y="1080"
     inkscape:window-maximized="1"
     inkscape:snap-others="true"
     inkscape:snap-page="false" />
  <metadata
     id="metadata3728">
    <rdf:RDF>
      <cc:Work
         rdf:about="">
        <dc:format>image/svg+xml</dc:format>
        <dc:type
           rdf:resource="http://purl.org/dc/dcmitype/StillImage" />
        <dc:title />
      </cc:Work>
    </rdf:RDF>
  </metadata>
  <g
     inkscape:label="Layer 1"
     inkscape:groupmode="layer"
     id="layer1" />
  <g
     inkscape:groupmode="layer"
     id="layer2"
     inkscape:label="Layer 2">
    <path
       d="M 41.76774,4.0250613 A 14.704326,14.846112 53.142973 0 0 38.588467,24.515273 l -0.0096,0.0072 0.130248,0.173817 167.905225,223.97843 0.0283,-0.0212 a 14.704326,14.846112 53.142973 0 0 0.5775,0.85832 14.704326,14.846112 53.142973 0 0 20.69926,2.86114 14.704326,14.846112 53.142973 0 0 3.05839,-20.67104 14.704326,14.846112 53.142973 0 0 -0.65025,-0.80382 l 0.0259,-0.0195 L 62.72971,7.2762009 A 14.704326,14.846112 53.142973 0 0 62.466889,6.8862964 14.704326,14.846112 53.142973 0 0 41.767634,4.0251484 Z"
       id="rect3738"
       inkscape:connector-curvature="0"
       style="fill:#cccccc;stroke-width:1.50280046" />
    <path
       style="fill:none;stroke:#cccccc;stroke-width:1.72035134px;stroke-linecap:butt;stroke-linejoin:miter;stroke-opacity:1"
       d="M 38.588467,24.515273 C 16.676936,51.088999 32.850651,101.04896 56.278654,124.5537 110.66577,179.11897 81.758198,228.69392 81.758198,228.69392 l -8.515309,-10.94828"
       id="path3782"
       inkscape:connector-curvature="0"
       sodipodi:nodetypes="cscc" />
  </g>
</svg>
