<?xml version="1.0" encoding="UTF-8" standalone="no"?>
<!-- Created with Inkscape (http://www.inkscape.org/) -->

<svg
   xmlns:dc="http://purl.org/dc/elements/1.1/"
   xmlns:cc="http://creativecommons.org/ns#"
   xmlns:rdf="http://www.w3.org/1999/02/22-rdf-syntax-ns#"
   xmlns:svg="http://www.w3.org/2000/svg"
   xmlns="http://www.w3.org/2000/svg"
   xmlns:sodipodi="http://sodipodi.sourceforge.net/DTD/sodipodi-0.dtd"
   xmlns:inkscape="http://www.inkscape.org/namespaces/inkscape"
   width="256px"
   height="256px"
   viewBox="0 0 256 256"
   version="1.1"
   id="SVGRoot"
   sodipodi:docname="Logo-Dark.svg"
   inkscape:version="0.92.5 (2060ec1f9f, 2020-04-08)">
  <defs
     id="defs3725" />
  <sodipodi:namedview
     id="base"
     pagecolor="#ffffff"
     bordercolor="#666666"
     borderopacity="1.0"
     inkscape:pageopacity="0.0"
     inkscape:pageshadow="2"
     inkscape:zoom="2.8284271"
     inkscape:cx="86.259984"
     inkscape:cy="121.22"
     inkscape:document-units="px"
     inkscape:current-layer="layer1"
     showgrid="false"
     inkscape:window-width="1908"
     inkscape:window-height="987"
     inkscape:window-x="0"
     inkscape:window-y="1080"
     inkscape:window-maximized="1" />
  <metadata
     id="metadata3728">
    <rdf:RDF>
      <cc:Work
         rdf:about="">
        <dc:format>image/svg+xml</dc:format>
        <dc:type
           rdf:resource="http://purl.org/dc/dcmitype/StillImage" />
        <dc:title></dc:title>
      </cc:Work>
    </rdf:RDF>
  </metadata>
  <g
     inkscape:label="Layer 1"
     inkscape:groupmode="layer"
     id="layer1">
    <path
       d="M 45.685966,5.7823091 A 14.291256,14.429057 53.142973 0 0 42.596004,25.696914 l -0.0094,0.007 0.126589,0.168933 163.188467,217.686483 0.0275,-0.0206 a 14.291256,14.429057 53.142973 0 0 0.56129,0.8342 14.291256,14.429057 53.142973 0 0 20.11778,2.78077 14.291256,14.429057 53.142973 0 0 2.97247,-20.09036 14.291256,14.429057 53.142973 0 0 -0.63197,-0.78123 l 0.0251,-0.0189 L 66.059074,8.9421191 A 14.291256,14.429057 53.142973 0 0 65.803637,8.5631684 14.291256,14.429057 53.142973 0 0 45.685864,5.7823944 Z"
       id="rect3738"
       inkscape:connector-curvature="0"
       style="stroke-width:1.46058404;fill:#000000" />
    <path
       style="fill:none;stroke:#000000;stroke-width:1.67202342px;stroke-linecap:butt;stroke-linejoin:miter;stroke-opacity:1"
       d="M 42.596004,25.696914 C 21.30001,51.524134 37.019374,100.08061 59.78924,122.92506 112.64853,175.9575 84.553017,224.13979 84.553017,224.13979 L 76.27692,213.49909"
       id="path3782"
       inkscape:connector-curvature="0"
       sodipodi:nodetypes="cscc" />
  </g>
</svg>
